# xmcd CD database file
#
# Track frame offsets:
#	151
#	13491
#	28266
#	42086
#	55994
#	68419
#	81926
#	95459
#	108886
#	123201
#	137586
#	151044
#	164686
#	177891
#	191851
#	205611
#	219301
#	232496
#	245963
#	259046
#
# Disc length: 3633 seconds
#
# Revision: 0
# Processed by: cddbd v1.5.1PL2 Copyright (c) Steve Scherf et al.
# Submitted via: CDex 1.51
#
DISCID=1d0e2f14
DTITLE=Leadbelly - Convict Blues
DYEAR=1930
DGENRE=Blues
TTITLE0=Ox Driven Blues
TTITLE1=Pig Meat Papa
TTITLE2=Fort Worth and Dallas Blues
TTITLE3=Mister Tom Huges Town
TTITLE4=Bull Cow
TTITLE5=Death Letter Blues PT.1
TTITLE6=Death Letter Blues PT.2
TTITLE7=You Can't Lose me Charlie
TTITLE8=New Black Snake Moan
TTITLE9=TB Women Blues
TTITLE10=Roberta PT. 1
TTITLE11=Roberta PT. 2
TTITLE12=Daddy I'm Coming Back To You
TTITLE13=My Friend Blind Lemon
TTITLE14=Matchbox Blues
TTITLE15=Red River Blues
TTITLE16=Packin Truck Blues
TTITLE17=CC Rider
TTITLE18=Baby Don't You Love Me No More
TTITLE19=Kanas City Papa
EXTD=YEAR: 1930
EXTT0=
EXTT1=
EXTT2=
EXTT3=
EXTT4=
EXTT5=
EXTT6=
EXTT7=
EXTT8=
EXTT9=
EXTT10=
EXTT11=
EXTT12=
EXTT13=
EXTT14=
EXTT15=
EXTT16=
EXTT17=
EXTT18=
EXTT19=
PLAYORDER=
